<?xml version="1.0" encoding="utf-8"?>
<!-- Generator: Adobe Illustrator 25.4.1, SVG Export Plug-In . SVG Version: 6.00 Build 0)  -->
<svg version="1.1" id="Layer_1" xmlns="http://www.w3.org/2000/svg" xmlns:xlink="http://www.w3.org/1999/xlink" x="0px" y="0px"
	 viewBox="0 0 18 19" style="enable-background:new 0 0 18 19;" xml:space="preserve">
<style type="text/css">
	.st0{fill:#FFFFFF;}
</style>
<path class="st0" d="M2.2,19V9.6H0.5V4.4h4.4C4.8,4.3,4.8,4.2,4.8,4c0-0.1,0-0.3,0-0.4c0-0.7,0.3-1.3,0.8-1.8S6.6,1,7.3,1
	c0.3,0,0.6,0.1,0.9,0.2C8.5,1.3,8.7,1.4,9,1.7c0.3-0.3,0.5-0.4,0.8-0.5C10.1,1.1,10.4,1,10.7,1c0.7,0,1.3,0.3,1.8,0.8
	s0.8,1.1,0.8,1.8c0,0.2,0,0.3,0,0.4c0,0.1-0.1,0.3-0.2,0.4h4.4v5.1h-1.7V19H2.2z M10.7,2.7c-0.3,0-0.4,0.1-0.6,0.3
	C9.9,3.1,9.9,3.3,9.9,3.6S9.9,4,10.1,4.2c0.2,0.2,0.3,0.3,0.6,0.3s0.4-0.1,0.6-0.3c0.2-0.2,0.3-0.3,0.3-0.6S11.5,3.1,11.3,3
	C11.1,2.8,11,2.7,10.7,2.7z M6.4,3.6c0,0.3,0.1,0.4,0.3,0.6C6.9,4.3,7,4.4,7.3,4.4s0.4-0.1,0.6-0.3C8.1,4,8.1,3.8,8.1,3.6
	S8.1,3.1,7.9,3C7.7,2.8,7.6,2.7,7.3,2.7S6.9,2.8,6.7,3C6.5,3.1,6.4,3.3,6.4,3.6z M2.2,6.1v1.7h5.9V6.1H2.2z M8.1,17.3V9.6H3.9v7.7
	H8.1z M9.9,17.3h4.2V9.6H9.9V17.3z M15.8,7.9V6.1H9.9v1.7H15.8z"/>
</svg>
