<?xml version="1.0" encoding="utf-8"?>
<!-- Generator: Adobe Illustrator 25.4.1, SVG Export Plug-In . SVG Version: 6.00 Build 0)  -->
<svg version="1.1" id="Layer_1" xmlns="http://www.w3.org/2000/svg" xmlns:xlink="http://www.w3.org/1999/xlink" x="0px" y="0px"
	 viewBox="0 0 17 17" style="enable-background:new 0 0 17 17;" xml:space="preserve">
<style type="text/css">
	.st0{fill:#FFFFFF;}
</style>
<path class="st0" d="M8.5,8.5c-1.1,0-2-0.4-2.8-1.2S4.5,5.6,4.5,4.5s0.4-2,1.2-2.8s1.7-1.2,2.8-1.2s2,0.4,2.8,1.2s1.2,1.7,1.2,2.8
	s-0.4,2-1.2,2.8S9.6,8.5,8.5,8.5z M0.4,16.5v-2.8c0-0.6,0.1-1.1,0.4-1.6s0.7-0.8,1.2-1.1c1-0.5,2.1-0.9,3.2-1.2
	c1-0.2,2.1-0.3,3.2-0.3s2.2,0.1,3.2,0.4c1.1,0.3,2.1,0.6,3.1,1.2c0.5,0.2,0.9,0.6,1.2,1.1c0.3,0.5,0.4,1,0.4,1.6v2.7H0.4z M2.5,14.5
	h12.1v-0.8c0-0.2,0-0.4-0.1-0.5c-0.1-0.1-0.2-0.3-0.4-0.4c-0.9-0.4-1.8-0.8-2.7-1c-0.9-0.2-1.9-0.3-2.8-0.3s-1.9,0.1-2.8,0.3
	c-0.9,0.2-1.8,0.6-2.7,1c-0.2,0.1-0.3,0.2-0.4,0.4c-0.1,0.1-0.1,0.3-0.1,0.5V14.5z M8.5,6.5c0.6,0,1-0.2,1.4-0.6
	c0.4-0.4,0.6-0.9,0.6-1.4s-0.2-1-0.6-1.4S9.1,2.5,8.5,2.5s-1,0.2-1.4,0.6C6.7,3.5,6.5,3.9,6.5,4.5c0,0.6,0.2,1,0.6,1.4
	S7.9,6.5,8.5,6.5z"/>
</svg>
