<?xml version="1.0" encoding="utf-8"?>
<!-- Generator: Adobe Illustrator 25.4.1, SVG Export Plug-In . SVG Version: 6.00 Build 0)  -->
<svg version="1.1" id="Layer_1" xmlns="http://www.w3.org/2000/svg" xmlns:xlink="http://www.w3.org/1999/xlink" x="0px" y="0px"
	 viewBox="0 0 50 50" style="enable-background:new 0 0 50 50;" xml:space="preserve">
<style type="text/css">
	.st0{fill:#FFFFFF;}
</style>
<path class="st0" d="M26.7,25L19,32.7l3.5,3.6L33.8,25L22.5,13.8L19,17.3L26.7,25z M25,50c-3.5,0-6.7-0.7-9.8-2s-5.7-3.1-7.9-5.3
	s-4-4.9-5.3-7.9S0,28.5,0,25s0.7-6.7,2-9.8s3.1-5.7,5.3-7.9s4.9-4,7.9-5.3s6.3-2,9.8-2s6.7,0.7,9.8,2s5.7,3.1,7.9,5.3s4,4.9,5.3,7.9
	s2,6.3,2,9.8s-0.7,6.7-2,9.8s-3.1,5.7-5.3,7.9s-4.9,4-7.9,5.3S28.5,50,25,50z M25,45c5.6,0,10.3-1.9,14.2-5.8S45,30.6,45,25
	s-1.9-10.3-5.8-14.2S30.6,5,25,5s-10.3,1.9-14.2,5.8S5,19.4,5,25s1.9,10.3,5.8,14.2S19.4,45,25,45z"/>
</svg>
