<?xml version="1.0" encoding="utf-8"?>
<!-- Generator: Adobe Illustrator 25.4.1, SVG Export Plug-In . SVG Version: 6.00 Build 0)  -->
<svg version="1.1" id="Layer_1" xmlns="http://www.w3.org/2000/svg" xmlns:xlink="http://www.w3.org/1999/xlink" x="0px" y="0px"
	 viewBox="0 0 26 25" style="enable-background:new 0 0 26 25;" xml:space="preserve">
<path d="M3.7,24.5c-0.7,0-1.3-0.3-1.8-0.8s-0.8-1.1-0.8-1.9V3.2c0-0.7,0.3-1.4,0.8-1.9S3,0.5,3.7,0.5H22c0.2,0,0.3,0,0.5,0.1
	c0.2,0,0.3,0.1,0.5,0.1l-2.4,2.5H3.7v18.7H22V13l2.6-2.7v11.5c0,0.7-0.3,1.4-0.8,1.9s-1.1,0.8-1.8,0.8H3.7z M12.2,19.2l-7.4-7.5
	l1.8-1.9l5.6,5.7l12-12.2L26.1,5L12.2,19.2z"/>
</svg>
