<?xml version="1.0" encoding="utf-8"?>
<!-- Generator: Adobe Illustrator 25.4.1, SVG Export Plug-In . SVG Version: 6.00 Build 0)  -->
<svg version="1.1" id="Layer_1" xmlns="http://www.w3.org/2000/svg" xmlns:xlink="http://www.w3.org/1999/xlink" x="0px" y="0px"
	 viewBox="0 0 122 122" style="enable-background:new 0 0 122 122;" xml:space="preserve">
<style type="text/css">
	.st0{fill-rule:evenodd;clip-rule:evenodd;stroke:#000000;stroke-miterlimit:10;}
</style>
<path class="st0" d="M6.8,1h19.7c3.1,0,5.8,2.5,5.8,5.7v19.6c0,3.1-2.5,5.8-5.8,5.8H6.8c-3.1,0-5.7-2.5-5.7-5.8V6.7
	C1.1,3.6,3.6,1,6.8,1L6.8,1z M95.6,89.9h19.7c3.1,0,5.8,2.5,5.8,5.8v19.6c0,3.1-2.5,5.8-5.8,5.8H95.6c-3.1,0-5.8-2.5-5.8-5.8V95.7
	C89.8,92.5,92.5,89.9,95.6,89.9L95.6,89.9z M51.2,89.9h19.7c3.1,0,5.8,2.5,5.8,5.8v19.6c0,3.1-2.5,5.8-5.8,5.8H51.2
	c-3.1,0-5.7-2.5-5.7-5.8V95.7C45.5,92.5,48.1,89.9,51.2,89.9L51.2,89.9z M6.8,89.9h19.7c3.1,0,5.8,2.5,5.8,5.8v19.6
	c0,3.1-2.5,5.8-5.8,5.8H6.8c-3.1,0-5.7-2.5-5.7-5.8V95.7C1.1,92.5,3.6,89.9,6.8,89.9L6.8,89.9z M95.6,45.5h19.7
	c3.1,0,5.8,2.5,5.8,5.8v19.6c0,3.1-2.5,5.8-5.8,5.8H95.6c-3.1,0-5.8-2.5-5.8-5.8V51.2C89.8,48,92.5,45.5,95.6,45.5L95.6,45.5z
	 M51.2,45.5h19.7c3.1,0,5.8,2.5,5.8,5.8v19.6c0,3.1-2.5,5.8-5.8,5.8H51.2c-3.1,0-5.7-2.5-5.7-5.8V51.2C45.5,48,48.1,45.5,51.2,45.5
	L51.2,45.5z M6.8,45.5h19.7c3.1,0,5.8,2.5,5.8,5.8v19.6c0,3.1-2.5,5.8-5.8,5.8H6.8c-3.1,0-5.7-2.6-5.7-5.8V51.2
	C1.1,48,3.6,45.5,6.8,45.5L6.8,45.5z M95.6,1h19.7c3.1,0,5.8,2.5,5.8,5.7v19.6c0,3.1-2.5,5.8-5.8,5.8H95.6c-3.1,0-5.8-2.5-5.8-5.8
	V6.7C89.8,3.6,92.5,1,95.6,1L95.6,1z M51.2,1h19.7c3.1,0,5.8,2.5,5.8,5.7v19.6c0,3.1-2.5,5.8-5.8,5.8H51.2c-3.1,0-5.7-2.5-5.7-5.8
	V6.7C45.5,3.6,48.1,1,51.2,1L51.2,1z"/>
</svg>
