<?xml version="1.0" encoding="utf-8"?>
<!-- Generator: Adobe Illustrator 25.4.1, SVG Export Plug-In . SVG Version: 6.00 Build 0)  -->
<svg version="1.1" id="Layer_1" xmlns="http://www.w3.org/2000/svg" xmlns:xlink="http://www.w3.org/1999/xlink" x="0px" y="0px"
	 viewBox="0 0 124 124" style="enable-background:new 0 0 124 124;" xml:space="preserve">
<style type="text/css">
	.st0{fill:none;stroke:#000000;stroke-width:3;stroke-miterlimit:10;}
</style>
<path class="st0" d="M7.8,2.2h19.7c3.1,0,5.8,2.6,5.8,5.7v19.7c0,3.1-2.6,5.8-5.8,5.8H7.8c-3.1,0-5.7-2.6-5.7-5.8V7.9
	C2.1,4.6,4.7,2.2,7.8,2.2L7.8,2.2z M96.6,90.9h19.7c3.1,0,5.8,2.6,5.8,5.8v19.7c0,3.1-2.6,5.8-5.8,5.8H96.6c-3.1,0-5.8-2.6-5.8-5.8
	V96.7C90.8,93.6,93.5,90.9,96.6,90.9L96.6,90.9z M52.2,90.9h19.7c3.1,0,5.8,2.6,5.8,5.8v19.7c0,3.1-2.6,5.8-5.8,5.8H52.2
	c-3.1,0-5.7-2.6-5.7-5.8V96.7C46.6,93.6,49,90.9,52.2,90.9L52.2,90.9z M7.8,90.9h19.7c3.1,0,5.8,2.6,5.8,5.8v19.7
	c0,3.1-2.6,5.8-5.8,5.8H7.8c-3.1,0-5.7-2.6-5.7-5.8V96.7C2.1,93.6,4.7,90.9,7.8,90.9L7.8,90.9z M96.6,46.5h19.7
	c3.1,0,5.8,2.6,5.8,5.8V72c0,3.1-2.6,5.8-5.8,5.8H96.6c-3.1,0-5.8-2.6-5.8-5.8V52.3C90.8,49,93.5,46.5,96.6,46.5L96.6,46.5z
	 M52.2,46.5h19.7c3.1,0,5.8,2.6,5.8,5.8V72c0,3.1-2.6,5.8-5.8,5.8H52.2c-3.1,0-5.7-2.6-5.7-5.8V52.3C46.6,49,49,46.5,52.2,46.5
	L52.2,46.5z M7.8,46.5h19.7c3.1,0,5.8,2.6,5.8,5.8V72c0,3.1-2.6,5.8-5.8,5.8H7.8c-3.1,0-5.7-2.7-5.7-5.8V52.3
	C2.1,49,4.7,46.5,7.8,46.5L7.8,46.5z M96.6,2.2h19.7c3.1,0,5.8,2.6,5.8,5.7v19.7c0,3.1-2.6,5.8-5.8,5.8H96.6c-3.1,0-5.8-2.6-5.8-5.8
	V7.9C90.8,4.6,93.5,2.2,96.6,2.2L96.6,2.2z M52.2,2.2h19.7c3.1,0,5.8,2.6,5.8,5.7v19.7c0,3.1-2.6,5.8-5.8,5.8H52.2
	c-3.1,0-5.7-2.6-5.7-5.8V7.9C46.6,4.6,49,2.2,52.2,2.2L52.2,2.2z"/>
</svg>
