<?xml version="1.0" encoding="utf-8"?>
<!-- Generator: Adobe Illustrator 25.4.1, SVG Export Plug-In . SVG Version: 6.00 Build 0)  -->
<svg version="1.1" id="Layer_1" xmlns="http://www.w3.org/2000/svg" xmlns:xlink="http://www.w3.org/1999/xlink" x="0px" y="0px"
	 viewBox="0 0 125 125" style="enable-background:new 0 0 125 125;" xml:space="preserve">
<style type="text/css">
	.st0{fill:none;stroke:#000000;stroke-width:2.5;stroke-miterlimit:10;}
</style>
<path class="st0" d="M6.7,2.9h14.4c2.3,0,4.2,2.6,4.2,5.7v19.7c0,3.1-1.9,5.8-4.2,5.8H6.7c-2.3-0.3-4.2-2.7-4.2-6V8.5
	C2.4,5.4,4.3,2.9,6.7,2.9L6.7,2.9z M71.8,91.6h14.4c2.3,0,4.2,2.6,4.2,5.8v19.7c0,3.1-1.9,5.8-4.2,5.8H71.8c-2.3,0-4.2-2.6-4.2-5.8
	V97.4C67.7,94.3,69.5,91.6,71.8,91.6L71.8,91.6z M39.3,91.6h14.4c2.3,0,4.2,2.6,4.2,5.8v19.7c0,3.1-1.9,5.8-4.2,5.8H39.3
	c-2.3,0-4.2-2.6-4.2-5.8V97.4C35.1,94.3,36.9,91.6,39.3,91.6L39.3,91.6z M6.7,91.6h14.4c2.3,0,4.2,2.6,4.2,5.8v19.7
	c0,3.1-1.9,5.8-4.2,5.8H6.7c-2.3,0-4.2-2.6-4.2-5.8V97.4C2.4,94.3,4.3,91.6,6.7,91.6L6.7,91.6z M71.8,47.2h14.4
	c2.3,0,4.2,2.6,4.2,5.8v19.7c0,3.1-1.9,5.8-4.2,5.8H71.8c-2.3,0-4.2-2.6-4.2-5.8V53C67.7,49.7,69.5,47.2,71.8,47.2L71.8,47.2z
	 M39.3,47.2h14.4c2.3,0,4.2,2.6,4.2,5.8v19.7c0,3.1-1.9,5.8-4.2,5.8H39.3c-2.3,0-4.2-2.6-4.2-5.8V53C35.1,49.7,36.9,47.2,39.3,47.2
	L39.3,47.2z M6.7,47.2h14.4c2.3,0,4.2,2.6,4.2,5.8v19.7c0,3.1-1.9,5.8-4.2,5.8H6.7c-2.3,0-4.2-2.7-4.2-5.8V53
	C2.4,49.7,4.3,47.2,6.7,47.2L6.7,47.2z M71.8,2.9h14.4c2.3,0,4.2,2.6,4.2,5.7v19.7c0,3.1-1.9,5.8-4.2,5.8H71.8
	c-2.3,0-4.2-2.6-4.2-5.8V8.5C67.7,5.4,69.5,2.9,71.8,2.9L71.8,2.9z M103.8,91.6h14.4c2.3,0,4.2,2.6,4.2,5.8v19.7
	c0,3.1-1.9,5.8-4.2,5.8h-14.4c-2.3,0-4.2-2.6-4.2-5.8V97.4C99.6,94.3,101.4,91.6,103.8,91.6L103.8,91.6z M103.8,47.2h14.4
	c2.3,0,4.2,2.6,4.2,5.8v19.7c0,3.1-1.9,5.8-4.2,5.8h-14.4c-2.3,0-4.2-2.6-4.2-5.8V53C99.6,49.7,101.4,47.2,103.8,47.2L103.8,47.2z
	 M103.8,2.9h14.4c2.3,0,4.2,2.6,4.2,5.7v19.7c0,3.1-1.9,5.8-4.2,5.8h-14.4c-2.3,0-4.2-2.6-4.2-5.8V8.5C99.6,5.4,101.4,2.9,103.8,2.9
	L103.8,2.9z M39.3,2.9h14.4c2.3,0,4.2,2.6,4.2,5.7v19.7c0,3.1-1.9,5.8-4.2,5.8H39.3c-2.3,0-4.2-2.6-4.2-5.8V8.5
	C35.1,5.4,36.9,2.9,39.3,2.9L39.3,2.9z"/>
</svg>
