<?xml version="1.0" encoding="utf-8"?>
<!-- Generator: Adobe Illustrator 25.4.1, SVG Export Plug-In . SVG Version: 6.00 Build 0)  -->
<svg version="1.1" id="Layer_1" xmlns="http://www.w3.org/2000/svg" xmlns:xlink="http://www.w3.org/1999/xlink" x="0px" y="0px"
	 viewBox="0 0 122 122" style="enable-background:new 0 0 122 122;" xml:space="preserve">
<style type="text/css">
	.st0{fill-rule:evenodd;clip-rule:evenodd;stroke:#000000;stroke-miterlimit:10;}
</style>
<path class="st0" d="M5.2,1.4h14.4c2.3,0,4.2,2.6,4.2,5.7v19.7c0,3.1-1.9,5.8-4.2,5.8H5.2C2.9,32.3,1,29.9,1,26.6V7
	C0.9,3.9,2.8,1.4,5.2,1.4L5.2,1.4z M70.3,90.1h14.4c2.3,0,4.2,2.6,4.2,5.8v19.7c0,3.1-1.9,5.8-4.2,5.8H70.3c-2.3,0-4.2-2.6-4.2-5.8
	V95.9C66.2,92.8,68,90.1,70.3,90.1L70.3,90.1z M37.8,90.1h14.4c2.3,0,4.2,2.6,4.2,5.8v19.7c0,3.1-1.9,5.8-4.2,5.8H37.8
	c-2.3,0-4.2-2.6-4.2-5.8V95.9C33.6,92.8,35.4,90.1,37.8,90.1L37.8,90.1z M5.2,90.1h14.4c2.3,0,4.2,2.6,4.2,5.8v19.7
	c0,3.1-1.9,5.8-4.2,5.8H5.2c-2.3,0-4.2-2.6-4.2-5.8V95.9C0.9,92.8,2.8,90.1,5.2,90.1L5.2,90.1z M70.3,45.7h14.4
	c2.3,0,4.2,2.6,4.2,5.8v19.7c0,3.1-1.9,5.8-4.2,5.8H70.3c-2.3,0-4.2-2.6-4.2-5.8V51.5C66.2,48.2,68,45.7,70.3,45.7L70.3,45.7z
	 M37.8,45.7h14.4c2.3,0,4.2,2.6,4.2,5.8v19.7c0,3.1-1.9,5.8-4.2,5.8H37.8c-2.3,0-4.2-2.6-4.2-5.8V51.5
	C33.6,48.2,35.4,45.7,37.8,45.7L37.8,45.7z M5.2,45.7h14.4c2.3,0,4.2,2.6,4.2,5.8v19.7c0,3.1-1.9,5.8-4.2,5.8H5.2
	c-2.3,0-4.2-2.7-4.2-5.8V51.5C0.9,48.2,2.8,45.7,5.2,45.7L5.2,45.7z M70.3,1.4h14.4c2.3,0,4.2,2.6,4.2,5.7v19.7
	c0,3.1-1.9,5.8-4.2,5.8H70.3c-2.3,0-4.2-2.6-4.2-5.8V7C66.2,3.9,68,1.4,70.3,1.4L70.3,1.4z M102.3,90.1h14.4c2.3,0,4.2,2.6,4.2,5.8
	v19.7c0,3.1-1.9,5.8-4.2,5.8h-14.4c-2.3,0-4.2-2.6-4.2-5.8V95.9C98.1,92.8,99.9,90.1,102.3,90.1L102.3,90.1z M102.3,45.7h14.4
	c2.3,0,4.2,2.6,4.2,5.8v19.7c0,3.1-1.9,5.8-4.2,5.8h-14.4c-2.3,0-4.2-2.6-4.2-5.8V51.5C98.1,48.2,99.9,45.7,102.3,45.7L102.3,45.7z
	 M102.3,1.4h14.4c2.3,0,4.2,2.6,4.2,5.7v19.7c0,3.1-1.9,5.8-4.2,5.8h-14.4c-2.3,0-4.2-2.6-4.2-5.8V7C98.1,3.9,99.9,1.4,102.3,1.4
	L102.3,1.4z M37.8,1.4h14.4c2.3,0,4.2,2.6,4.2,5.7v19.7c0,3.1-1.9,5.8-4.2,5.8H37.8c-2.3,0-4.2-2.6-4.2-5.8V7
	C33.6,3.9,35.4,1.4,37.8,1.4L37.8,1.4z"/>
</svg>
