<?xml version="1.0" encoding="utf-8"?>
<!-- Generator: Adobe Illustrator 25.4.1, SVG Export Plug-In . SVG Version: 6.00 Build 0)  -->
<svg version="1.1" id="Layer_1" xmlns="http://www.w3.org/2000/svg" xmlns:xlink="http://www.w3.org/1999/xlink" x="0px" y="0px"
	 viewBox="0 0 25 25" style="enable-background:new 0 0 25 25;" xml:space="preserve">
<path d="M5.1,18.6c1-0.8,2.2-1.4,3.4-1.8c1.3-0.4,2.6-0.7,4-0.7s2.7,0.2,4,0.7c1.3,0.5,2.4,1.1,3.4,1.8c0.7-0.8,1.2-1.8,1.6-2.8
	c0.4-1,0.6-2.2,0.6-3.3c0-2.7-0.9-4.9-2.8-6.8s-4.1-2.8-6.8-2.8S7.6,3.8,5.7,5.7s-2.8,4.1-2.8,6.8c0,1.2,0.2,2.3,0.6,3.3
	S4.4,17.8,5.1,18.6z M12.5,13.7c-1.2,0-2.2-0.4-3-1.2c-0.8-0.8-1.2-1.8-1.2-3s0.4-2.2,1.2-3c0.8-0.8,1.8-1.2,3-1.2s2.2,0.4,3,1.2
	c0.8,0.8,1.2,1.8,1.2,3s-0.4,2.2-1.2,3C14.7,13.3,13.7,13.7,12.5,13.7z M12.5,24.5c-1.7,0-3.2-0.3-4.7-0.9C6.4,22.9,5.1,22.1,4,21
	s-1.9-2.4-2.6-3.8s-0.9-3-0.9-4.7c0-1.7,0.3-3.2,0.9-4.7S2.9,5.1,4,4s2.4-1.9,3.8-2.6s3-0.9,4.7-0.9s3.2,0.3,4.7,0.9S19.9,2.9,21,4
	s1.9,2.3,2.6,3.8c0.6,1.5,0.9,3,0.9,4.7c0,1.7-0.3,3.2-0.9,4.7c-0.6,1.5-1.5,2.7-2.6,3.8s-2.3,1.9-3.8,2.6
	C15.7,24.2,14.2,24.5,12.5,24.5z M12.5,22.1c1.1,0,2.1-0.2,3-0.5c0.9-0.3,1.8-0.8,2.6-1.3c-0.8-0.6-1.6-1-2.6-1.3
	c-0.9-0.3-1.9-0.5-3-0.5s-2.1,0.2-3,0.5s-1.8,0.8-2.6,1.3c0.8,0.6,1.6,1,2.6,1.3S11.4,22.1,12.5,22.1z M12.5,11.3
	c0.5,0,0.9-0.2,1.3-0.5c0.3-0.3,0.5-0.8,0.5-1.3c0-0.5-0.2-0.9-0.5-1.3c-0.3-0.3-0.8-0.5-1.3-0.5s-0.9,0.2-1.3,0.5
	c-0.3,0.3-0.5,0.8-0.5,1.3c0,0.5,0.2,1,0.5,1.3C11.6,11.1,12,11.3,12.5,11.3z"/>
</svg>
