<?xml version="1.0" encoding="utf-8"?>
<!-- Generator: Adobe Illustrator 25.4.1, SVG Export Plug-In . SVG Version: 6.00 Build 0)  -->
<svg version="1.1" id="Layer_1" xmlns="http://www.w3.org/2000/svg" xmlns:xlink="http://www.w3.org/1999/xlink" x="0px" y="0px"
	 viewBox="0 0 125 125" style="enable-background:new 0 0 125 125;" xml:space="preserve">
<style type="text/css">
	.st0{fill-rule:evenodd;clip-rule:evenodd;stroke:#000000;stroke-miterlimit:10;}
</style>
<path class="st0" d="M11.6,2.7h31.3c5,0,9.2,4,9.2,9v31.1c0,5-4,9.2-9.2,9.2H11.6c-5,0-9-4-9-9V11.8C2.5,6.7,6.6,2.7,11.6,2.7
	L11.6,2.7z M82.1,73.2h31.3c5,0,9.2,4,9.2,9.2v31.1c0,5-4,9.2-9.2,9.2H82.1c-5,0-9-4-9-9.2V82C72.9,77,77.1,73.2,82.1,73.2
	L82.1,73.2z M11.6,73.2h31.3c5,0,9.2,4,9.2,9.2v31.1c0,5-4,9.2-9.2,9.2H11.6c-5,0-9-4.2-9-9.2V82C2.5,77,6.6,73.2,11.6,73.2
	L11.6,73.2z M82.1,2.7h31.3c5,0,9.2,4,9.2,9v31.1c0,5-4,9.2-9.2,9.2H82.1c-5,0-9-4-9-9.2V11.7C72.9,6.7,77.1,2.7,82.1,2.7L82.1,2.7z
	"/>
</svg>
