<?xml version="1.0" encoding="utf-8"?>
<!-- Generator: Adobe Illustrator 25.4.1, SVG Export Plug-In . SVG Version: 6.00 Build 0)  -->
<svg version="1.1" id="Layer_1" xmlns="http://www.w3.org/2000/svg" xmlns:xlink="http://www.w3.org/1999/xlink" x="0px" y="0px"
	 viewBox="0 0 126 126" style="enable-background:new 0 0 126 126;" xml:space="preserve">
<style type="text/css">
	.st0{fill:none;stroke:#000000;stroke-width:4;stroke-miterlimit:10;}
</style>
<path class="st0" d="M12.1,3.2h31.3c5,0,9.2,4,9.2,9v31.1c0,5-4,9.2-9.2,9.2H12.1c-5,0-9-4-9-9V12.3C3,7.2,7.1,3.2,12.1,3.2
	L12.1,3.2z M82.6,73.7h31.3c5,0,9.2,4,9.2,9.2V114c0,5-4,9.2-9.2,9.2H82.6c-5,0-9-4-9-9.2V82.5C73.4,77.5,77.6,73.7,82.6,73.7
	L82.6,73.7z M12.1,73.7h31.3c5,0,9.2,4,9.2,9.2V114c0,5-4,9.2-9.2,9.2H12.1c-5,0-9-4.2-9-9.2V82.5C3,77.5,7.1,73.7,12.1,73.7
	L12.1,73.7z M82.6,3.2h31.3c5,0,9.2,4,9.2,9v31.1c0,5-4,9.2-9.2,9.2H82.6c-5,0-9-4-9-9.2V12.2C73.4,7.2,77.6,3.2,82.6,3.2L82.6,3.2z
	"/>
</svg>
