<svg xmlns="http://www.w3.org/2000/svg" xmlns:xlink="http://www.w3.org/1999/xlink" viewBox="0,0,256,256" width="35px" height="35px"><g fill="#ffffff" fill-rule="nonzero" stroke="none" stroke-width="1" stroke-linecap="butt" stroke-linejoin="miter" stroke-miterlimit="10" stroke-dasharray="" stroke-dashoffset="0" font-family="none" font-weight="none" font-size="none" text-anchor="none" style="mix-blend-mode: normal"><g transform="scale(4,4)"><path d="M32,10c-12.15,0 -22,9.85 -22,22c0,12.15 9.85,22 22,22c12.15,0 22,-9.85 22,-22c0,-12.15 -9.85,-22 -22,-22zM32,14c9.941,0 18,8.059 18,18c0,9.941 -8.059,18 -18,18c-9.941,0 -18,-8.059 -18,-18c0,-9.941 8.059,-18 18,-18zM33.5293,18.78711c-0.26161,0.04753 -0.48342,0.24639 -0.54492,0.52539v0.01172l-1.625,7.63281c-3.062,0.049 -6.04308,0.99003 -8.58008,2.70703c-1.291,-1.214 -3.32506,-1.15342 -4.53906,0.14258c-1.214,1.291 -1.15342,3.32506 0.14258,4.53906c0.252,0.235 0.54028,0.43808 0.86328,0.58008c-0.022,0.323 -0.022,0.64575 0,0.96875c0,4.928 5.74222,8.93555 12.82422,8.93555c7.082,0 12.82422,-4.00255 12.82422,-8.93555c0.022,-0.323 0.022,-0.64575 0,-0.96875c1.104,-0.553 1.79934,-1.68978 1.77734,-2.92578c-0.065,-1.772 -1.55308,-3.1557 -3.33008,-3.0957c-0.787,0.027 -1.53647,0.35158 -2.10547,0.89258c-2.505,-1.706 -5.4467,-2.64103 -8.4707,-2.70703l1.42773,-6.86328l4.70703,0.99023c0.132,1.208 1.21483,2.08217 2.42383,1.95117c1.208,-0.132 2.08217,-1.21483 1.95117,-2.42383c-0.132,-1.208 -1.21287,-2.08217 -2.42187,-1.95117c-0.694,0.071 -1.31711,0.47417 -1.66211,1.07617l-5.39258,-1.07617c-0.09175,-0.0205 -0.18233,-0.0217 -0.26953,-0.00586zM26.87695,32c1.214,0 2.20313,0.98913 2.20313,2.20313c0,1.214 -0.98913,2.20508 -2.20312,2.20508c-1.22,-0.011 -2.20508,-0.99108 -2.20508,-2.20508c0,-1.214 0.99108,-2.20312 2.20508,-2.20312zM37.05859,32.07617c1.214,0 2.20313,0.98913 2.20313,2.20313c0.049,1.214 -0.89733,2.23811 -2.11133,2.28711h-0.10742l0.01563,-0.08203c-1.214,0 -2.20508,-0.99108 -2.20508,-2.20508c0,-1.214 0.99108,-2.20312 2.20508,-2.20312zM27.03906,39.2793c0.13337,0 0.26691,0.04476 0.37891,0.13477c1.323,0.968 2.93517,1.46177 4.57617,1.38477c1.641,0.087 3.25961,-0.38284 4.59961,-1.33984c0.24,-0.235 0.63414,-0.22928 0.86914,0.01172c0.235,0.241 0.22928,0.63414 -0.01172,0.86914v-0.08789c-1.564,1.176 -3.47659,1.77731 -5.43359,1.69531c-1.958,0.082 -3.8735,-0.51931 -5.4375,-1.69531c-0.208,-0.252 -0.16997,-0.62989 0.08203,-0.83789c0.1095,-0.09 0.24358,-0.13477 0.37695,-0.13477z"></path></g></g></svg>