<?xml version="1.0" encoding="utf-8"?>
<!-- Generator: Adobe Illustrator 25.4.1, SVG Export Plug-In . SVG Version: 6.00 Build 0)  -->
<svg version="1.1" id="Layer_1" xmlns:serif="http://www.serif.com/"
	 xmlns="http://www.w3.org/2000/svg" xmlns:xlink="http://www.w3.org/1999/xlink" x="0px" y="0px" viewBox="0 0 17 13"
	 style="enable-background:new 0 0 17 13;" xml:space="preserve">
<style type="text/css">
	.st0{fill:none;}
	.st1{fill:#2BBC80;}
</style>
<g id="Artboard1" transform="matrix(1,0,0,1,-3.17892,-3.38968)">
	<rect x="3.7" y="3.9" class="st0" width="16" height="12"/>
	<g transform="matrix(1,0,0,1,0.178924,0.389682)">
		<path class="st1" d="M16.1,6c0.2-0.2,0.5-0.3,0.8-0.3c0.6,0,1.2,0.4,1.2,1c0,0.2-0.1,0.5-0.3,0.6l-6.3,6.4
			c-0.2,0.2-0.5,0.3-0.9,0.3c-0.3,0-0.6-0.1-0.8-0.3l-4.2-3.4c-0.2-0.2-0.4-0.4-0.4-0.7c0-0.5,0.5-1,1.2-1C6.7,8.7,7,8.8,7.3,9
			l3.3,2.7L16.1,6C16,6,16.1,6,16.1,6L16.1,6z"/>
	</g>
</g>
</svg>
