<?xml version="1.0" encoding="utf-8"?>
<!-- Generator: Adobe Illustrator 25.4.1, SVG Export Plug-In . SVG Version: 6.00 Build 0)  -->
<svg version="1.1" id="Layer_1" xmlns="http://www.w3.org/2000/svg" xmlns:xlink="http://www.w3.org/1999/xlink" x="0px" y="0px"
	 viewBox="0 0 595.28 841.89" enable-background="new 0 0 595.28 841.89" xml:space="preserve">
<g id="facebook_00000079484636949473147260000006220827381939346309_" transform="translate(40.000000, 40.000000)">
	
		<rect id="Rectangle_00000134237042423563102010000007071654412255479946_" x="-40" y="-40" fill="#FFFFFF" stroke="#FFFFFF" stroke-miterlimit="10" width="35" height="35"/>
	<g id="Oval_00000072962016705126047710000011949697521580459396_">
		<path id="path-1_00000116940425957115709360000004225536059576636576_" fill="#FFFFFF" stroke="#FFFFFF" stroke-width="4" d="
			M-22.5-40c23,0.39,23,34.61,0,35C-45.5-5.39-45.5-39.61-22.5-40z"/>
	</g>
	
		<path id="Shape_00000116221204355021859630000007772941148949772439_" fill-rule="evenodd" clip-rule="evenodd" fill="#FFFFFF" stroke="#FFFFFF" stroke-miterlimit="10" d="
		M-21.45-12.16h-3.88v-9.15h-1.94v-3.15h1.94c-0.57-5.17,1.75-6.43,6.79-5.99v3.15c-2.94-0.14-3.04,0.03-2.91,2.84h2.93l-0.34,3.15
		h-2.59V-12.16L-21.45-12.16z"/>
</g>
<g id="twitter_00000095320216836061366120000014251570008129610625_" transform="translate(100.000000, 40.000000)">
	
		<rect id="Rectangle_00000164495884010220864030000014910173370427923593_" x="-65" y="-40" fill="#FFFFFF" stroke="#FFFFFF" stroke-miterlimit="10" width="35" height="35"/>
	<g id="Oval_00000013912784081369398100000002143693636584193714_">
		<path id="path-3_00000095315879611766292890000009372430720379612315_" fill="#FFFFFF" stroke="#FFFFFF" stroke-width="4" d="
			M-47.5-40c23,0.39,23,34.61,0,35C-70.5-5.39-70.5-39.61-47.5-40z"/>
	</g>
	
		<path id="Shape_00000147178749651164991800000000577331939318908324_" fill-rule="evenodd" clip-rule="evenodd" fill="#FFFFFF" stroke="#FFFFFF" stroke-miterlimit="10" d="
		M-40.72-26.6c0.71-0.45,1.25-1.16,1.51-2c-0.66,0.41-1.4,0.71-2.18,0.88c-2.3-2.72-6.73-0.12-5.84,3.3
		c-2.85-0.15-5.37-1.59-7.06-3.78c-0.92,1.55-0.4,3.88,1.06,4.83c-0.56-0.02-1.09-0.18-1.55-0.45c-0.02,1.76,1.17,3.26,2.75,3.59
		c-0.49,0.14-1.05,0.17-1.55,0.06c0.44,1.44,1.7,2.48,3.2,2.51c-1.36,1.14-3.24,1.74-5.07,1.5c6.85,4.95,15.9-2.05,14.99-9.13
		c0.67-0.51,1.25-1.15,1.71-1.87C-39.36-26.88-40.03-26.69-40.72-26.6z"/>
</g>
<g id="instagram_00000180331173577947861140000018194070006549032576_" transform="translate(220.000000, 40.000000)">
	
		<rect id="Rectangle_00000106118510685041253510000011906748169660031154_" x="-150" y="-40" fill="#FFFFFF" stroke="#FFFFFF" stroke-miterlimit="10" width="35" height="35"/>
	<g id="Oval_00000021104855698540528870000011762781908887155879_">
		<path id="path-7_00000074414430555729354610000010969701342957754763_" fill="#FFFFFF" stroke="#FFFFFF" stroke-width="4" d="
			M-132.5-40c23,0.39,23,34.61,0,35C-155.5-5.39-155.5-39.61-132.5-40z"/>
	</g>
	
		<path id="Shape_00000085931157399317163670000017383409986269553046_" fill-rule="evenodd" clip-rule="evenodd" fill="#FFFFFF" stroke="#FFFFFF" stroke-miterlimit="10" d="
		M-132.5-29.67c6.34-0.39,7.56,0.83,7.17,7.17c0.39,6.34-0.83,7.56-7.17,7.17c-6.34,0.39-7.56-0.83-7.17-7.17
		C-140.06-28.84-138.84-30.06-132.5-29.67 M-132.5-31.25c-7.07-0.55-9.3,1.68-8.75,8.75c-0.55,7.07,1.68,9.3,8.75,8.75
		c7.07,0.55,9.3-1.68,8.75-8.75C-123.2-29.57-125.43-31.8-132.5-31.25z M-132.48-26.98c-5.83-0.09-5.83,9.08,0,8.99
		C-126.65-17.9-126.65-27.07-132.48-26.98z M-132.48-19.56c-3.79,0.06-3.79-5.89,0-5.84C-128.7-25.46-128.7-19.51-132.48-19.56z
		 M-126.81-27.19c0.02,1.35-2.1,1.35-2.08,0C-128.91-28.54-126.79-28.54-126.81-27.19z"/>
</g>
<g id="youtube-play_00000074437951256221422830000010612086966622790846_" transform="translate(100.000000, 100.000000)">
	
		<rect id="Rectangle_00000121980499963242271120000005507487099988443048_" x="39.96" y="-100" fill="#FFFFFF" stroke="#FFFFFF" stroke-miterlimit="10" width="35" height="35"/>
	<g id="Oval_00000165950294509882302500000003815782680706449049_">
		<path id="path-25_00000108270229360038117470000008826450743308204416_" fill="#FFFFFF" stroke="#FFFFFF" stroke-width="4" d="
			M57.46-100c23,0.39,23,34.61,0,35C34.46-65.4,34.46-99.61,57.46-100z"/>
	</g>
	
		<path id="Shape_00000075130156427434347270000014296681167342492336_" fill-rule="evenodd" clip-rule="evenodd" fill="#FFFFFF" stroke="#FFFFFF" stroke-miterlimit="10" d="
		M65.41-79.67c-0.51-2.45,1.7-8.04-2.74-8.4H52.24c0,0-2.74,0-2.74,2.73c0.51,2.45-1.69,8.04,2.74,8.4h10.43
		C62.67-76.94,65.41-76.93,65.41-79.67 M60.55-82.49l-5.21,3.05v-6.1L60.55-82.49"/>
</g>
<g id="linkedin_00000149367940050931847330000005737045319839441057_" transform="translate(400.000000, 40.000000)">
	
		<rect id="Rectangle_00000015349793387112035510000004512686893735068583_" x="-295.04" y="-40" fill="#FFFFFF" stroke="#FFFFFF" stroke-miterlimit="10" width="35" height="35"/>
	<g id="Oval_00000169558133798329678990000014386041306559406738_">
		<path id="path-13_00000018940817522535483400000015177289812581570696_" fill="#FFFFFF" stroke="#FFFFFF" stroke-width="4" d="
			M-277.54-40c23,0.39,23,34.61,0,35C-300.54-5.39-300.54-39.61-277.54-40z"/>
	</g>
	
		<path id="Shape_00000181088699790769266650000014430214179324250789_" fill-rule="evenodd" clip-rule="evenodd" fill="#FFFFFF" stroke="#FFFFFF" stroke-miterlimit="10" d="
		M-285.09-25.35h3.1v10.81h-3.1V-25.35z M-283.62-26.71c-2.47,0.08-2.46-3.84,0.02-3.75C-281.15-30.53-281.13-26.62-283.62-26.71
		L-283.62-26.71z M-269.59-14.55h-3.52v-5.59c0.31-2.62-2.72-3.32-3.44-1.14c-0.18,0.42-0.03,6.14-0.08,6.73h-3.48
		c0,0,0.04-9.91,0-10.81h3.48v1.7c1.59-3.26,7.51-1.97,7.03,3.1C-269.59-20.56-269.59-14.55-269.59-14.55L-269.59-14.55z"/>
</g>
<g id="reddit_00000023974482525948940660000009030144661297074306_" transform="translate(520.000000, 280.000000)">
	
		<rect id="Rectangle_00000143593538388010549910000007126534996004697240_" x="-345.08" y="-280.01" fill="#FFFFFF" stroke="#FFFFFF" stroke-miterlimit="10" width="35" height="35"/>
	<g id="Oval_00000111914090337352027220000005290182720347349647_">
		<path id="path-97_00000071549206111497237830000007429874118829965232_" fill="#FFFFFF" stroke="#FFFFFF" stroke-width="4" d="
			M-327.58-280.01c23,0.39,23,34.61,0,35C-350.58-245.39-350.58-279.61-327.58-280.01z"/>
	</g>
	
		<path id="Shape_00000077302061081261472550000007797218024619997101_" fill-rule="evenodd" clip-rule="evenodd" fill="#FFFFFF" stroke="#FFFFFF" stroke-miterlimit="10" d="
		M-324.5-259.77c-1.85,0.02-1.83-2.81,0-2.8C-322.7-262.6-322.68-259.76-324.5-259.77 M-324.17-257.08
		c-1.02,1.43-7.33,1.67-6.81-0.79c1.11-0.4,1.62,1.04,3.39,0.73C-326.1-256.73-323.58-259.29-324.17-257.08 M-332.06-261.17
		c-0.01-1.81,2.84-1.83,2.82,0C-329.21-259.36-332.07-259.38-332.06-261.17 M-320.69-270.01c1.23-0.02,1.23,1.9,0,1.88
		C-321.92-268.11-321.92-270.02-320.69-270.01 M-317.24-262.7c0.07-2.03-2.54-3.22-4.05-1.91c-1.52-0.94-3.44-1.51-5.5-1.63
		l1.08-3.37l2.96,0.69c0.14,2.57,4.2,2.43,4.15-0.15c0.07-2.12-3.03-2.82-3.92-0.95c-5.45-1.56-3.69-0.66-5.44,3.76
		c-2.22,0.05-4.31,0.62-5.94,1.62c-2.58-2.06-5.7,2.14-2.94,3.97c-0.36,9.04,18.73,9.06,18.45,0.05
		C-317.7-261.05-317.24-261.82-317.24-262.7"/>
</g>
</svg>
