<?xml version="1.0" encoding="utf-8"?>
<!-- Generator: Adobe Illustrator 25.4.1, SVG Export Plug-In . SVG Version: 6.00 Build 0)  -->
<svg version="1.1"
	 id="Layer_1" text-rendering="geometricPrecision" image-rendering="optimizeQuality" shape-rendering="geometricPrecision"
	 xmlns="http://www.w3.org/2000/svg" xmlns:xlink="http://www.w3.org/1999/xlink" x="0px" y="0px" viewBox="0 0 33 21"
	 style="enable-background:new 0 0 33 21;" xml:space="preserve">
<style type="text/css">
	.st0{fill-rule:evenodd;clip-rule:evenodd;fill:#FFFFFF;}
</style>
<path class="st0" d="M13.8,2.3c-5.1,1.3-8.4,3.6-9.2,8c-0.2,1.3,0.1,0.4,1-0.4c3.1-2,9.2-1.3,10,3.3c1.7,7.9-10,9.3-13.4,4.9
	c-0.9-1-1.4-2.3-1.6-3.5C-0.2,9,3.2,4,9.2,1.6c1.1-0.5,2.3-0.8,3.6-1c0.6-0.1,1.1,0.3,1.3,0.8C14.3,1.6,14.3,2.1,13.8,2.3z
	 M30.5,2.3c-5.1,1.3-8.4,3.8-9.2,8c-0.2,1.3,0.1,0.4,1-0.4c3.1-2,9.2-1.3,10,3.3c1.7,7.9-10,9.3-13.4,4.9c-0.8-1-1.3-2.3-1.5-3.5
	C16.5,9,20,4,26,1.6c1.1-0.5,2.3-0.8,3.6-1c0.6-0.1,1.1,0.3,1.3,0.8C31,1.6,31.1,2.1,30.5,2.3z"/>
</svg>
