<?xml version="1.0" encoding="utf-8"?>
<!-- Generator: Adobe Illustrator 25.4.1, SVG Export Plug-In . SVG Version: 6.00 Build 0)  -->
<svg version="1.1" id="Layer_1" xmlns="http://www.w3.org/2000/svg" xmlns:xlink="http://www.w3.org/1999/xlink" x="0px" y="0px"
	 viewBox="0 0 49 31" style="enable-background:new 0 0 49 31;" xml:space="preserve">
<style type="text/css">
	.st0{fill:#EB001B;}
	.st1{fill:#F79E1B;}
	.st2{fill:#FF5F00;}
</style>
<path class="st0" d="M15.3,0.5c-8.2,0-14.8,6.8-14.8,15c0,8.3,6.7,15,14.9,15c8.2,0,14.8-6.8,14.8-15C30.1,7.2,23.5,0.5,15.3,0.5
	L15.3,0.5z"/>
<path class="st1" d="M33.6,0.5c-8.2,0-14.8,6.8-14.8,15c0,8.3,6.7,15,14.9,15c8.2,0,14.8-6.8,14.8-15C48.5,7.2,41.9,0.5,33.6,0.5
	L33.6,0.5z"/>
<path class="st2" d="M24.5,3.7c-6.4,5.1-7.6,14.5-2.5,21.1c0.7,0.9,1.6,1.8,2.5,2.5c6.4-5.1,7.6-14.5,2.5-21.1
	C26.3,5.3,25.4,4.4,24.5,3.7"/>
</svg>
