<?xml version="1.0" encoding="utf-8"?>
<!-- Generator: Adobe Illustrator 25.4.1, SVG Export Plug-In . SVG Version: 6.00 Build 0)  -->
<svg version="1.1" id="Layer_1" xmlns:v="https://vecta.io/nano"
	 xmlns="http://www.w3.org/2000/svg" xmlns:xlink="http://www.w3.org/1999/xlink" x="0px" y="0px" viewBox="0 0 71 26"
	 style="enable-background:new 0 0 71 26;" xml:space="preserve">
<style type="text/css">
	.st0{fill:#003087;}
	.st1{fill:#0070E0;}
	.st2{fill:#001C64;}
</style>
<g transform="translate(936.898 -21.779)">
	<path class="st0" d="M-913.9,27.3c-0.1,0-0.1,0.2-0.4,0.3l-1.7,14.2c0,0.2,0,0.4,0.1,0.4l0,0h2c0.1,0,0.1-0.2,0.4-0.3l0.6-4.2
		c0-0.2,0.1-0.3,0.4-0.3h1.8c2,0,3.9-2.1,4.2-4.8c0.4-2.8-1.3-5.2-3.6-5.2L-913.9,27.3L-913.9,27.3z M-911.9,30.4h1.5
		c1.3,0,1.7,0.9,1.5,2c-0.1,1-0.7,1.8-1.8,1.8h-1.5L-911.9,30.4z M-902.5,31.5c-0.6,0-1.1,0.2-1.7,0.5c-1.5,0.8-2.2,2.6-2.4,3.8
		c0,0-1,3.8,1.3,5.9c0,0,2,2,4.2-0.1V42c0,0.2,0,0.4,0.1,0.4l0,0h1.8c0.1,0,0.1-0.2,0.4-0.3l1.1-9.8c0-0.2,0-0.4-0.1-0.4l0,0h-1.8
		c-0.1,0-0.1,0.2-0.4,0.3v0.5C-900.3,32.6-901,31.5-902.5,31.5L-902.5,31.5z M-902.5,34.5c0.1,0,0.4,0,0.6,0.1
		c0.7,0.3,1.3,1.5,1.1,2.5c-0.1,1.5-1.1,2.4-2,2.4c-0.1,0-0.4,0-0.6-0.1c-0.7-0.3-1.3-1.5-1.1-2.5
		C-904.3,35.5-903.6,34.5-902.5,34.5L-902.5,34.5z"/>
	<path class="st1" d="M-886.8,27.3c-0.1,0-0.1,0.2-0.4,0.3l-1.7,14.2c0,0.2,0,0.4,0.1,0.4l0,0h2c0.1,0,0.1-0.2,0.4-0.3l0.6-4.2
		c0-0.2,0.1-0.3,0.4-0.3h1.8c2,0,3.9-2.1,4.2-4.8c0.4-2.8-1.3-5.2-3.6-5.2L-886.8,27.3L-886.8,27.3z M-885,30.4h1.5
		c1.3,0,1.7,0.9,1.5,2c-0.1,1-0.7,1.8-1.8,1.8h-1.5L-885,30.4z M-875.3,31.5c-0.6,0-1.1,0.2-1.7,0.5c-1.5,0.8-2.2,2.6-2.4,3.8
		c0,0-1,3.8,1.3,5.9c0,0,2,2,4.2-0.1V42c0,0.2,0,0.4,0.1,0.4l0,0h1.8c0.1,0,0.1-0.2,0.4-0.3l1.1-9.8c0-0.2,0-0.4-0.1-0.4l0,0h-1.8
		c-0.1,0-0.1,0.2-0.4,0.3v0.5C-873.2,32.6-873.9,31.5-875.3,31.5L-875.3,31.5z M-875.3,34.5c0.1,0,0.4,0,0.6,0.1
		c0.7,0.3,1.3,1.5,1.1,2.5c-0.1,1.5-1.1,2.4-2,2.4c-0.1,0-0.4,0-0.6-0.1c-0.7-0.3-1.3-1.5-1.1-2.5
		C-877.4,35.5-876.4,34.5-875.3,34.5L-875.3,34.5z"/>
	<path class="st0" d="M-896.8,31.8c-0.1,0-0.1,0.2-0.1,0.4l2,8.6l-1.8,4.1c0,0.2,0,0.4,0.1,0.4h2.2c0.1,0,0.1-0.1,0.4-0.2l5.8-12.8
		c0-0.2,0-0.4-0.1-0.4h-2.2c-0.1,0-0.1,0.1-0.4,0.2l-2.2,5.2l-1.1-5.1c0-0.2-0.1-0.2-0.1-0.2L-896.8,31.8z"/>
	<path class="st1" d="M-868.6,27.3c-0.1,0-0.1,0.2-0.4,0.3l-1.7,14.2c0,0.2,0,0.4,0.1,0.4l0,0h2c0.1,0,0.1-0.2,0.4-0.3l1.7-14.2
		c0-0.2,0-0.4-0.1-0.4l0,0C-866.6,27.3-868.6,27.3-868.6,27.3z"/>
	<path class="st2" d="M-930.4,27.3c-0.1,0-0.6,0.2-0.6,0.7l-1,7.5c0-0.3,0.1-0.7,0.6-0.7h2.5c2.5,0,4.8-2.6,5.2-6c0-0.2,0-0.5,0-0.8
		c-0.6-0.5-1.5-0.8-2.2-0.8C-925.8,27.3-930.4,27.3-930.4,27.3z"/>
	<path class="st1" d="M-923.5,28c0,0.2,0,0.5,0,0.8c-0.4,3.4-2.5,6-5.2,6h-2.5c-0.1,0-0.6,0.2-0.6,0.7l-0.7,6.8l-0.6,4.3
		c0,0.3,0.1,0.7,0.4,0.7l0,0h2.8c0.1,0,0.6-0.2,0.6-0.7l0.7-6.2c0-0.3,0.1-0.7,0.6-0.7h1.7c2.5,0,4.8-2.6,5.2-6
		C-920.9,31.4-921.9,29.1-923.5,28L-923.5,28z"/>
	<path class="st0" d="M-933.6,22.3c-0.1,0-0.6,0.2-0.6,0.7l-2.2,18.8c0,0.3,0.1,0.7,0.4,0.7h3.4l0.7-6.8l1-7.5
		c0-0.3,0.1-0.7,0.6-0.7h4.6c0.7,0,1.7,0.2,2.2,0.8c0-3.2-1.8-5.8-4.6-5.8C-928.3,22.3-933.6,22.3-933.6,22.3z"/>
</g>
</svg>
