<?xml version="1.0" encoding="utf-8"?>
<!-- Generator: Adobe Illustrator 25.4.1, SVG Export Plug-In . SVG Version: 6.00 Build 0)  -->
<svg version="1.1"
	 id="Layer_1" inkscape:version="0.91 r13725" xmlns:cc="http://creativecommons.org/ns#" xmlns:dc="http://purl.org/dc/elements/1.1/" xmlns:inkscape="http://www.inkscape.org/namespaces/inkscape" xmlns:rdf="http://www.w3.org/1999/02/22-rdf-syntax-ns#" xmlns:sodipodi="http://sodipodi.sourceforge.net/DTD/sodipodi-0.dtd" xmlns:svg="http://www.w3.org/2000/svg"
	 xmlns="http://www.w3.org/2000/svg" xmlns:xlink="http://www.w3.org/1999/xlink" x="0px" y="0px" viewBox="0 0 71 26"
	 style="enable-background:new 0 0 71 26;" xml:space="preserve">
<style type="text/css">
	.st0{fill:#00579F;}
	.st1{fill:#FAA61A;}
</style>
<sodipodi:namedview  bordercolor="#666666" borderopacity="1" gridtolerance="10" guidetolerance="10" id="namedview19" inkscape:current-layer="Layer_1" inkscape:cx="34.690897" inkscape:cy="131.15483" inkscape:pageopacity="0" inkscape:pageshadow="2" inkscape:window-height="705" inkscape:window-maximized="1" inkscape:window-width="1366" inkscape:window-x="-8" inkscape:window-y="-8" inkscape:zoom="0.35355339" objecttolerance="10" pagecolor="#ffffff" showgrid="false">
	</sodipodi:namedview>
<g id="g4158" transform="matrix(4.4299631,0,0,4.4299631,-81.165783,-105.04783)">
	<polygon id="polygon9" class="st0" points="27,28.5 26,28.5 26.5,24.8 27.5,24.8 	"/>
	<path id="path11" inkscape:connector-curvature="0" class="st0" d="M30.7,24.9c-0.1-0.1-0.4-0.2-0.9-0.2c-1,0-1.7,0.5-1.7,1.3
		c0,0.6,0.4,0.9,0.9,1.1c0.4,0.2,0.4,0.3,0.4,0.5c0,0.3-0.3,0.4-0.6,0.4c-0.4,0-0.6-0.1-0.9-0.2l-0.1-0.1l0,0.9
		c0.1,0.1,0.7,0.2,1.2,0.2c1.2,0,1.7-0.5,1.9-1.3c0-0.4-0.3-0.8-0.9-1.1c-0.4-0.2-0.6-0.3-0.6-0.5s0.1-0.3,0.6-0.3
		c0.3,0,0.6,0.1,0.7,0.2h0.1v-0.9H30.7z"/>
	<path id="path13" inkscape:connector-curvature="0" class="st0" d="M32,27.2c0.1-0.2,0.4-1.1,0.4-1.1s0.1-0.2,0.1-0.4l0.1,0.3
		c0,0,0.1,0.9,0.1,1.1C32.7,27.2,32.2,27.2,32,27.2L32,27.2z M33.2,24.8h-0.9c-0.1,0-0.4,0.1-0.4,0.3l-1.4,3.5h1.2
		c0,0,0.1-0.5,0.1-0.6c0.1,0,1.2,0,1.3,0c0,0.1,0.1,0.6,0.1,0.6H34L33.2,24.8L33.2,24.8L33.2,24.8z"/>
	<path id="path15" inkscape:connector-curvature="0" class="st0" d="M25.1,24.8l-1,2.7l-0.1-0.6c-0.1-0.6-0.9-1.3-1.4-1.6l0.9,3.3
		h1.2l1.6-3.8H25.1L25.1,24.8L25.1,24.8z"/>
	<path id="path17" inkscape:connector-curvature="0" class="st1" d="M23.2,24.8h-1.6v0.1c1.3,0.3,2.2,1.1,2.5,2.1l-0.4-1.8
		C23.6,24.9,23.5,24.8,23.2,24.8L23.2,24.8z"/>
</g>
</svg>
