<?xml version="1.0" encoding="utf-8"?>
<!-- Generator: Adobe Illustrator 25.4.1, SVG Export Plug-In . SVG Version: 6.00 Build 0)  -->
<svg version="1.1"
	 id="Layer_1" inkscape:version="0.91 r13725" xmlns:cc="http://creativecommons.org/ns#" xmlns:dc="http://purl.org/dc/elements/1.1/" xmlns:inkscape="http://www.inkscape.org/namespaces/inkscape" xmlns:rdf="http://www.w3.org/1999/02/22-rdf-syntax-ns#" xmlns:sodipodi="http://sodipodi.sourceforge.net/DTD/sodipodi-0.dtd" xmlns:svg="http://www.w3.org/2000/svg"
	 xmlns="http://www.w3.org/2000/svg" xmlns:xlink="http://www.w3.org/1999/xlink" x="0px" y="0px" viewBox="0 0 56 19"
	 style="enable-background:new 0 0 56 19;" xml:space="preserve">
<style type="text/css">
	.st0{fill:#00579F;}
	.st1{fill:#FAA61A;}
</style>
<sodipodi:namedview  bordercolor="#666666" borderopacity="1" gridtolerance="10" guidetolerance="10" id="namedview19" inkscape:current-layer="Layer_1" inkscape:cx="34.690897" inkscape:cy="131.15483" inkscape:pageopacity="0" inkscape:pageshadow="2" inkscape:window-height="705" inkscape:window-maximized="1" inkscape:window-width="1366" inkscape:window-x="-8" inkscape:window-y="-8" inkscape:zoom="0.35355339" objecttolerance="10" pagecolor="#ffffff" showgrid="false">
	</sodipodi:namedview>
<g id="g4158" transform="matrix(4.4299631,0,0,4.4299631,-81.165783,-105.04783)">
	<polygon id="polygon9" class="st0" points="23.8,27.8 22.8,27.8 23.4,23.9 24.4,23.9 	"/>
	<path id="path11" inkscape:connector-curvature="0" class="st0" d="M27.5,24c-0.2-0.1-0.5-0.2-0.9-0.2c-1,0-1.7,0.5-1.7,1.3
		c0,0.6,0.5,0.9,0.9,1.1c0.4,0.2,0.5,0.3,0.5,0.5c0,0.3-0.3,0.4-0.6,0.4c-0.4,0-0.6-0.1-0.9-0.2l-0.1-0.1l-0.1,0.9
		c0.2,0.1,0.7,0.2,1.1,0.2c1.1,0,1.7-0.5,1.8-1.3c0-0.4-0.3-0.8-0.8-1.1c-0.4-0.2-0.6-0.3-0.6-0.5c0-0.2,0.2-0.3,0.6-0.3
		c0.3,0,0.6,0.1,0.7,0.2l0.1,0L27.5,24C27.5,24,27.5,24,27.5,24z"/>
	<path id="path13" inkscape:connector-curvature="0" class="st0" d="M28.8,26.4c0.1-0.2,0.4-1.1,0.4-1.1c0,0,0.1-0.2,0.1-0.4
		l0.1,0.3c0,0,0.2,0.9,0.2,1.1C29.5,26.4,29,26.4,28.8,26.4L28.8,26.4z M30,23.9h-0.8c-0.2,0-0.4,0.1-0.5,0.3l-1.5,3.6h1.1
		c0,0,0.2-0.5,0.2-0.6c0.1,0,1.1,0,1.3,0c0,0.1,0.1,0.6,0.1,0.6h0.9L30,23.9L30,23.9L30,23.9z"/>
	<path id="path15" inkscape:connector-curvature="0" class="st0" d="M22,23.9l-1,2.7L20.9,26c-0.2-0.6-0.8-1.3-1.4-1.6l0.9,3.4h1.1
		l1.6-3.9H22L22,23.9L22,23.9z"/>
	<path id="path17" inkscape:connector-curvature="0" class="st1" d="M20.1,23.9h-1.6l0,0.1c1.3,0.3,2.1,1.1,2.4,2.1l-0.4-1.8
		C20.5,24,20.3,23.9,20.1,23.9L20.1,23.9z"/>
</g>
</svg>
