<?xml version="1.0" encoding="utf-8"?>
<!-- Generator: Adobe Illustrator 25.4.1, SVG Export Plug-In . SVG Version: 6.00 Build 0)  -->
<svg version="1.1" id="Layer_1" xmlns="http://www.w3.org/2000/svg" xmlns:xlink="http://www.w3.org/1999/xlink" x="0px" y="0px"
	 viewBox="0 0 71 26" style="enable-background:new 0 0 71 26;" xml:space="preserve">
<style type="text/css">
	.st0{fill:#EB001B;}
	.st1{fill:#F79E1B;}
	.st2{fill:#FF5F00;}
</style>
<path class="st0" d="M44.7,1C38.2,1,33,6.4,33,13s5.3,12,11.8,12s11.7-5.4,11.7-12S51.2,1,44.7,1L44.7,1z"/>
<path class="st1" d="M59.2,1c-6.5,0-11.7,5.4-11.7,12s5.3,12,11.8,12S71,19.6,71,13S65.8,1,59.2,1L59.2,1z"/>
<path class="st2" d="M52,3.6c-5.1,4.1-6,11.6-2,16.8c0.6,0.8,1.2,1.4,2,2c5.1-4.1,6-11.6,2-16.8C53.4,4.8,52.7,4.2,52,3.6"/>
</svg>
