<?xml version="1.0" encoding="utf-8"?>
<!-- Generator: Adobe Illustrator 25.4.1, SVG Export Plug-In . SVG Version: 6.00 Build 0)  -->
<svg version="1.1" id="Layer_1" xmlns:v="https://vecta.io/nano"
	 xmlns="http://www.w3.org/2000/svg" xmlns:xlink="http://www.w3.org/1999/xlink" x="0px" y="0px" viewBox="0 0 111 31"
	 style="enable-background:new 0 0 111 31;" xml:space="preserve">
<style type="text/css">
	.st0{fill:#003087;}
	.st1{fill:#0070E0;}
	.st2{fill:#001C64;}
</style>
<g transform="translate(936.898 -21.779)">
	<path class="st0" d="M-901.2,28.3c-0.2,0-0.4,0.2-0.5,0.4l-2.6,17.1c0,0.2,0.1,0.5,0.4,0.5c0,0,0,0,0.1,0h3.1
		c0.2,0,0.4-0.2,0.5-0.4l0.8-5c0-0.2,0.2-0.4,0.5-0.4h2.8c3.3,0,6.1-2.5,6.6-5.8c0.5-3.4-2.1-6.3-5.7-6.3H-901.2z M-898.2,32.1h2.3
		c1.9,0,2.5,1.1,2.3,2.4c-0.2,1.3-1.1,2.2-2.9,2.2h-2.3L-898.2,32.1z M-883.3,33.3c-0.8,0-1.7,0.2-2.7,0.6c-2.3,1-3.4,3.1-3.9,4.6
		c0,0-1.5,4.6,1.9,7.1c0,0,3.2,2.4,6.7-0.1l-0.1,0.4c0,0.2,0.1,0.5,0.4,0.5c0,0,0,0,0.1,0h3c0.2,0,0.4-0.2,0.5-0.4l1.8-11.7
		c0-0.2-0.1-0.5-0.4-0.5c0,0,0,0-0.1,0h-3c-0.2,0-0.4,0.2-0.5,0.4l-0.1,0.6C-879.7,34.7-881,33.3-883.3,33.3L-883.3,33.3z
		 M-883.2,37c0.3,0,0.6,0,0.9,0.1c1.3,0.4,2,1.7,1.8,3c-0.3,1.7-1.6,2.9-3.3,2.9c-0.3,0-0.6,0-0.9-0.1c-1.3-0.4-2-1.7-1.8-3
		C-886.3,38.2-885,37-883.2,37L-883.2,37z"/>
	<path class="st1" d="M-858.7,28.3c-0.2,0-0.4,0.2-0.5,0.4l-2.6,17.1c0,0.2,0.1,0.5,0.4,0.5c0,0,0,0,0.1,0h3.1
		c0.2,0,0.4-0.2,0.5-0.4l0.8-5c0-0.2,0.2-0.4,0.5-0.4h2.8c3.3,0,6.1-2.5,6.6-5.8c0.5-3.4-2.1-6.3-5.7-6.3H-858.7z M-855.7,32.1h2.3
		c1.9,0,2.5,1.1,2.3,2.4c-0.2,1.3-1.1,2.2-2.9,2.2h-2.3L-855.7,32.1z M-840.8,33.3c-0.8,0-1.7,0.2-2.7,0.6c-2.3,1-3.4,3.1-3.9,4.6
		c0,0-1.5,4.6,1.9,7.1c0,0,3.2,2.4,6.7-0.1l-0.1,0.4c0,0.2,0.1,0.5,0.4,0.5c0,0,0,0,0.1,0h2.9c0.2,0,0.4-0.2,0.5-0.4l1.8-11.7
		c0-0.2-0.1-0.5-0.4-0.5c0,0,0,0-0.1,0h-3c-0.2,0-0.4,0.2-0.5,0.4l-0.1,0.6C-837.2,34.7-838.5,33.3-840.8,33.3L-840.8,33.3z
		 M-840.8,37c0.3,0,0.6,0,0.9,0.1c1.3,0.4,2,1.7,1.8,3c-0.3,1.7-1.6,2.9-3.3,2.9c-0.3,0-0.6,0-0.9-0.1c-1.3-0.4-2-1.7-1.8-3
		C-843.8,38.2-842.5,37-840.8,37L-840.8,37z"/>
	<path class="st0" d="M-874.4,33.7c-0.2,0-0.4,0.2-0.3,0.5l3.2,10.3l-2.9,4.9c-0.1,0.2,0,0.5,0.3,0.5h3.5c0.2,0,0.4-0.1,0.5-0.3
		l9-15.4c0.1-0.2,0-0.5-0.3-0.5h-3.5c-0.2,0-0.4,0.1-0.5,0.3l-3.6,6.2l-1.8-6.1c-0.1-0.2-0.2-0.3-0.4-0.3L-874.4,33.7z"/>
	<path class="st1" d="M-829.9,28.3c-0.2,0-0.4,0.2-0.5,0.4l-2.6,17.1c0,0.2,0.1,0.5,0.4,0.5c0,0,0,0,0.1,0h3.1
		c0.2,0,0.4-0.2,0.5-0.4l2.6-17.1c0-0.2-0.1-0.5-0.4-0.5c0,0,0,0-0.1,0L-829.9,28.3z"/>
	<path class="st2" d="M-927.1,28.3c-0.4,0-0.8,0.3-0.8,0.7l-1.4,9c0.1-0.4,0.4-0.7,0.8-0.7h4c4.1,0,7.5-3.1,8.2-7.2
		c0-0.3,0.1-0.6,0.1-0.9c-1-0.6-2.2-0.9-3.6-0.9L-927.1,28.3z"/>
	<path class="st1" d="M-916.2,29.2c0,0.3,0,0.6-0.1,0.9c-0.6,4.1-4.1,7.2-8.2,7.2h-4c-0.4,0-0.8,0.3-0.8,0.7l-1.3,8.3l-0.8,5.2
		c-0.1,0.4,0.2,0.7,0.6,0.8c0,0,0.1,0,0.1,0h4.4c0.4,0,0.8-0.3,0.8-0.7l1.2-7.5c0.1-0.4,0.4-0.7,0.8-0.7h2.6c4.1,0,7.5-3.1,8.2-7.2
		C-912.3,33.2-913.8,30.5-916.2,29.2L-916.2,29.2z"/>
	<path class="st0" d="M-932.1,22.3c-0.4,0-0.8,0.3-0.8,0.7l-3.4,22.5c-0.1,0.4,0.3,0.8,0.7,0.8h5.1l1.3-8.3l1.4-9
		c0.1-0.4,0.4-0.7,0.8-0.7h7.3c1.3,0,2.5,0.3,3.6,0.9c0.1-3.8-3-6.9-7.1-6.9L-932.1,22.3z"/>
</g>
</svg>
